<svg xmlns:xlink="http://www.w3.org/1999/xlink" xmlns="http://www.w3.org/2000/svg" viewBox="0 0 32 32" aria-hidden="true" role="presentation" focusable="false" style="display: block; height: 20px; width: 20px; fill: currentcolor;" width="21"  height="21" ><path d="M16.5 26a1.5 1.5 0 0 0-.14 3H26v2h-9.5a3.5 3.5 0 0 1-.2-7H28a1 1 0 0 0 1-1c0-.48-.4-.93-.89-1H8v3H6v-3H2v-2h4v-8.26c-.9.74-2.03 1.2-3.28 1.26H2v-2h.5A3.5 3.5 0 0 0 6 7.7v-.96c-.9.74-2.03 1.2-3.28 1.26H2V6h.5A3.5 3.5 0 0 0 6 2.7V2h2v.5A3.5 3.5 0 0 0 11.3 6h.7v2h-.5A5.48 5.48 0 0 1 8 6.74v.76a3.5 3.5 0 0 0 3.3 3.5h.7v2h-.5A5.48 5.48 0 0 1 8 11.74V20h1.46L20.5 3.38a3 3 0 0 1 4.86-.2l.14.2 5.33 8.07-1.66 1.1-1.7-2.55H24.5l-2.7 3.6a1 1 0 0 1-1.51.1l-.09-.1-2.17-2.9-6.17 9.3H28a3 3 0 0 1 .18 6H28zm5.73-21.61-.07.1-2.96 4.45 1.8 2.4 2.2-2.94a1 1 0 0 1 .68-.4H26.16l-2.33-3.52a1 1 0 0 0-1.6-.1z" fill="#222222"></path></svg>