<svg xmlns:xlink="http://www.w3.org/1999/xlink" xmlns="http://www.w3.org/2000/svg" viewBox="0 0 32 32" aria-hidden="true" role="presentation" focusable="false" style="display: block; height: 24px; width: 24px; fill: currentcolor;" width="21"  height="21" ><path d="M28 2a2 2 0 0 1 2 1.85V28a2 2 0 0 1-1.85 2H4a2 2 0 0 1-2-1.85V4a2 2 0 0 1 1.85-2H4zM15 13H9v8H4v7h24v-7h-3v4H15zm-3 10a1 1 0 1 1 0 2 1 1 0 0 1 0-2zM28 4H4v15h3v-6a2 2 0 0 1 1.85-2H15a2 2 0 0 1 2 1.85V23h6v-2a2 2 0 0 1 1.85-2H28zM12 19a1 1 0 1 1 0 2 1 1 0 0 1 0-2zm0-4a1 1 0 1 1 0 2 1 1 0 0 1 0-2zm10-8a3 3 0 1 1 0 6 3 3 0 0 1 0-6zm0 2a1 1 0 1 0 0 2 1 1 0 0 0 0-2z" fill="#222222"></path></svg>